<?xml version="1.0" standalone="no"?><!DOCTYPE svg PUBLIC "-//W3C//DTD SVG 1.1//EN" "http://www.w3.org/Graphics/SVG/1.1/DTD/svg11.dtd"><svg t="1721469205475" class="icon" viewBox="0 0 1024 1024" version="1.1" xmlns="http://www.w3.org/2000/svg" p-id="8412" width="32" height="32" xmlns:xlink="http://www.w3.org/1999/xlink"><path d="M512 0C229.12 0 0 229.12 0 512s229.12 512 512 512 512-229.12 512-512-229.12-512-512-512z m275.2 329.130667c-23.722667 10.922667-79.957333 45.824-32.938667 124.330666 24.490667 40.789333 29.952 229.461333-186.197333 229.461334-17.322667 19.114667-138.666667 116.992-344.064 61.696 61.781333-70.997333 128.512-146.346667 191.402667-217.770667 98.133333-111.445333 196.522667-188.586667 96.512-268.544 68.778667-0.853333 199.509333-19.968 229.205333 68.266667l46.08 2.56z" fill="#2c2c2c" p-id="8413"></path></svg>